<?xml version="1.0" encoding="utf-8"?>
<!-- Generator: Adobe Illustrator 16.0.0, SVG Export Plug-In . SVG Version: 6.00 Build 0)  -->
<!DOCTYPE svg PUBLIC "-//W3C//DTD SVG 1.1//EN" "http://www.w3.org/Graphics/SVG/1.1/DTD/svg11.dtd">
<svg version="1.1" id="yui_3_17_2_1_1452394883881_484"
	 xmlns="http://www.w3.org/2000/svg" xmlns:xlink="http://www.w3.org/1999/xlink" x="0px" y="0px" width="612px" height="792px"
	 viewBox="0 0 612 792" enable-background="new 0 0 612 792" xml:space="preserve">
<g id="symbol" transform="translate(331.7500305175781, 102.33319091796875) scale(3.555)">
	<g>
		<g id="yui_3_17_2_1_1452394883881_483_9_">
			<g id="yui_3_17_2_1_1452394883881_797_9_" transform="scale(1.108327814468738)">
				<path id="yui_3_17_2_1_1452394883881_798_19_" fill="#FFFFFF" d="M-17.612,43.866c-0.067,0.45-0.067,0.699-0.167,0.882
					c-0.1,0.184-0.149,0.483-0.532,0.633c-0.383,0.15-4.161,1.049-4.494,1.132c-0.333,0.083-0.388,0.021-0.458,0
					c-0.071-0.021-0.5-0.033-0.716-0.008c-0.023,0.003-0.095,0.01-0.204,0.019l0.003,0.022c0,0-3.995,0.355-6.347,0.355
					c-0.025,0-0.051-0.001-0.075-0.001c-0.025,0-0.051,0.001-0.075,0.001c-2.352,0-6.347-0.355-6.347-0.355l0.002-0.022
					c-0.109-0.01-0.181-0.017-0.205-0.019c-0.217-0.025-0.645-0.013-0.716,0.008c-0.071,0.021-0.125,0.083-0.458,0
					c-0.333-0.083-4.111-0.983-4.494-1.132c-0.383-0.15-0.433-0.449-0.533-0.633c-0.1-0.183-0.1-0.433-0.166-0.882
					c-0.067-0.45-0.017-2.58,0-3.096c0.017-0.516,0.2-2.248,0.249-2.713c0.05-0.466,0.399-1.482,0.633-1.681
					c0.233-0.199,0.549-0.4,0.899-0.666c0.349-0.267,1.898-1.182,2.031-1.298c0.133-0.117,0.25-0.233,0.1-0.393
					c-0.15-0.16-0.249-0.04-0.382-0.006c-0.133,0.034-0.799-0.067-1.116-0.166c-0.316-0.1-0.299-0.283-0.233-0.566
					c0.067-0.283,0.166-0.383,0.383-0.466c0.216-0.084,0.433-0.133,0.832-0.183c0.399-0.05,0.399,0.083,0.549,0.433
					c0.15,0.35,0.15,0.682,0.3,0.699c0.15,0.017,0.383-0.716,1.015-1.781c0.633-1.066,1.465-1.915,2.015-2.064
					c0.452-0.123,2.518-0.295,4.523-0.352c0.363-0.013,0.738-0.02,1.119-0.02c0.024,0,0.05,0,0.076,0c0.024,0,0.05,0,0.075,0
					c0.381,0,0.756,0.008,1.119,0.02c2.004,0.057,4.071,0.229,4.523,0.352c0.549,0.15,1.382,0.998,2.014,2.064
					c0.632,1.065,0.865,1.797,1.015,1.781c0.15-0.017,0.15-0.35,0.299-0.699c0.15-0.349,0.15-0.483,0.549-0.433
					c0.399,0.05,0.616,0.1,0.832,0.183c0.216,0.083,0.316,0.183,0.383,0.466c0.067,0.282,0.083,0.466-0.233,0.566
					c-0.316,0.1-0.982,0.2-1.115,0.166c-0.133-0.033-0.234-0.154-0.383,0.006c-0.149,0.16-0.033,0.277,0.1,0.393
					c0.133,0.116,1.681,1.031,2.031,1.298c0.349,0.266,0.666,0.466,0.899,0.666c0.233,0.2,0.582,1.215,0.633,1.681
					c0.049,0.465,0.233,2.197,0.25,2.713C-17.595,41.286-17.545,43.416-17.612,43.866z M-18.694,36.792c0,0-2.03,0.583-3.412,1.215
					c-1.381,0.632-1.631,1.398-1.631,1.398s0.871,0.333,1.088,0.383c0.216,0.05,0.593,0.011,1.12-0.111
					c0.527-0.122,0.865-0.216,1.093-0.26c0.228-0.045,0.333-0.061,0.527,0.006c0.194,0.066,0.222,0.144,0.461,0.044
					c0.239-0.1,1.021-0.455,1.021-1.015c0-0.56,0.022-0.627-0.066-0.96C-18.582,37.158-18.694,36.792-18.694,36.792z
					 M-42.705,37.491c-0.089,0.333-0.067,0.399-0.067,0.96c0,0.561,0.782,0.915,1.021,1.015c0.238,0.1,0.266,0.023,0.461-0.044
					c0.194-0.066,0.3-0.05,0.527-0.006c0.227,0.044,0.566,0.139,1.093,0.261c0.527,0.122,0.905,0.161,1.121,0.111
					c0.216-0.049,1.087-0.383,1.087-0.383s-0.249-0.766-1.631-1.398c-1.381-0.633-3.412-1.215-3.412-1.215
					S-42.616,37.158-42.705,37.491z M-22.522,42.251c0-1.85-3.746-2.496-6.986-2.61c-0.01,0-0.021-0.001-0.032-0.001
					c-0.065-0.002-0.13-0.004-0.195-0.006c-0.069-0.002-0.139-0.004-0.208-0.005c-0.009-0.001-0.018-0.001-0.027-0.001
					c-0.197-0.005-0.392-0.007-0.585-0.007c-0.008,0-0.016,0-0.025,0c-0.008,0-0.016,0-0.024,0c-0.192,0-0.388,0.002-0.584,0.007
					c-0.009,0-0.018,0-0.027,0.001c-0.069,0.002-0.139,0.003-0.208,0.005c-0.065,0.002-0.129,0.004-0.194,0.006
					c-0.011,0-0.021,0.001-0.031,0.001c-3.24,0.114-6.986,0.76-6.986,2.61c0,2.053,2.914,2.13,7.998,2.131c0.012,0,0.023,0,0.035,0
					c0.008,0,0.016,0,0.025,0c0.008,0,0.016,0,0.024,0c0.012,0,0.023,0,0.035,0C-25.436,44.381-22.522,44.304-22.522,42.251z
					 M-31.161,40.421c0,0,0.049,0.199,0.216,0.482c0.167,0.283,0.391,0.45,0.391,0.45s0.291-0.249,0.475-0.516
					c0.183-0.266,0.269-0.416,0.269-0.416l4.659-0.117c0,0-2.846-0.494-5.427-0.494c-2.58,0-5.376,0.494-5.376,0.494L-31.161,40.421
					z M-43.128,42.035c0,0-0.042,0.574,0.042,1.049c0.083,0.475,0.333,0.832,0.475,1.015c0.141,0.183,0.866,0.508,1.115,0.533
					c0.249,0.025,0.549-0.083,0.84-0.025c0.291,0.059,1.615,0.458,2.022,0.591c0.408,0.133,0.175-0.49,0.05-0.816
					c-0.125-0.324-0.274-0.633-0.483-0.741c-0.208-0.108-1.048-0.491-1.798-0.707c-0.749-0.216-2.264-0.932-2.264-0.932
					 M-18.207,42.002c0,0-1.515,0.716-2.264,0.932c-0.749,0.217-1.59,0.599-1.797,0.707c-0.209,0.108-0.358,0.416-0.483,0.741
					c-0.125,0.325-0.357,0.949,0.05,0.816c0.408-0.134,1.731-0.533,2.022-0.591c0.292-0.058,0.591,0.05,0.841,0.026
					c0.25-0.026,0.974-0.35,1.115-0.533c0.142-0.183,0.391-0.541,0.475-1.015c0.083-0.475,0.041-1.049,0.041-1.049 M-23.671,44.648
					c0,0-5.049,0.291-6.928,0.299c-1.879-0.008-6.928-0.299-6.928-0.299s-0.083,0.716,0.283,0.799
					c0.237,0.054,2.319,0.184,4.188,0.27l-0.001,0.015c0,0,0.797,0.066,2.379,0.066c0.025,0,0.053,0,0.08,0c0.026,0,0.054,0,0.079,0
					c1.573,0,2.306-0.076,2.313-0.077c1.886-0.086,4.014-0.219,4.253-0.273C-23.587,45.364-23.671,44.648-23.671,44.648z
					 M-23.221,32.653c-0.378-0.866-0.954-1.709-1.132-1.931c-0.178-0.222-0.178-0.245-0.954-0.356
					c-0.48-0.068-2.155-0.103-3.527-0.13v-0.048c0,0-0.954-0.044-1.642,0c-0.028,0.001-0.063,0.003-0.101,0.005
					c-0.038-0.002-0.073-0.004-0.101-0.005c-0.688-0.044-1.642,0-1.642,0v0.048c-1.372,0.027-3.046,0.061-3.527,0.13
					c-0.777,0.111-0.777,0.133-0.954,0.356c-0.178,0.222-0.755,1.065-1.132,1.931c-0.378,0.865-0.066,0.821,0.516,0.888
					c0.575,0.066,5.519,0.066,6.814,0.066c0.016,0,0.035,0,0.052,0c1.294,0,6.239,0,6.814-0.066
					C-23.155,33.474-22.844,33.518-23.221,32.653z"/>
				<path id="yui_3_17_2_1_1452394883881_798_18_" fill="#FFFFFF" d="M-17.612,43.866c-0.067,0.45-0.067,0.699-0.167,0.882
					c-0.1,0.184-0.149,0.483-0.532,0.633c-0.383,0.15-4.161,1.049-4.494,1.132c-0.333,0.083-0.388,0.021-0.458,0
					c-0.071-0.021-0.5-0.033-0.716-0.008c-0.023,0.003-0.095,0.01-0.204,0.019l0.003,0.022c0,0-3.995,0.355-6.347,0.355
					c-0.025,0-0.051-0.001-0.075-0.001c-0.025,0-0.051,0.001-0.075,0.001c-2.352,0-6.347-0.355-6.347-0.355l0.002-0.022
					c-0.109-0.01-0.181-0.017-0.205-0.019c-0.217-0.025-0.645-0.013-0.716,0.008c-0.071,0.021-0.125,0.083-0.458,0
					c-0.333-0.083-4.111-0.983-4.494-1.132c-0.383-0.15-0.433-0.449-0.533-0.633c-0.1-0.183-0.1-0.433-0.166-0.882
					c-0.067-0.45-0.017-2.58,0-3.096c0.017-0.516,0.2-2.248,0.249-2.713c0.05-0.466,0.399-1.482,0.633-1.681
					c0.233-0.199,0.549-0.4,0.899-0.666c0.349-0.267,1.898-1.182,2.031-1.298c0.133-0.117,0.25-0.233,0.1-0.393
					c-0.15-0.16-0.249-0.04-0.382-0.006c-0.133,0.034-0.799-0.067-1.116-0.166c-0.316-0.1-0.299-0.283-0.233-0.566
					c0.067-0.283,0.166-0.383,0.383-0.466c0.216-0.084,0.433-0.133,0.832-0.183c0.399-0.05,0.399,0.083,0.549,0.433
					c0.15,0.35,0.15,0.682,0.3,0.699c0.15,0.017,0.383-0.716,1.015-1.781c0.633-1.066,1.465-1.915,2.015-2.064
					c0.452-0.123,2.518-0.295,4.523-0.352c0.363-0.013,0.738-0.02,1.119-0.02c0.024,0,0.05,0,0.076,0c0.024,0,0.05,0,0.075,0
					c0.381,0,0.756,0.008,1.119,0.02c2.004,0.057,4.071,0.229,4.523,0.352c0.549,0.15,1.382,0.998,2.014,2.064
					c0.632,1.065,0.865,1.797,1.015,1.781c0.15-0.017,0.15-0.35,0.299-0.699c0.15-0.349,0.15-0.483,0.549-0.433
					c0.399,0.05,0.616,0.1,0.832,0.183c0.216,0.083,0.316,0.183,0.383,0.466c0.067,0.282,0.083,0.466-0.233,0.566
					c-0.316,0.1-0.982,0.2-1.115,0.166c-0.133-0.033-0.234-0.154-0.383,0.006c-0.149,0.16-0.033,0.277,0.1,0.393
					c0.133,0.116,1.681,1.031,2.031,1.298c0.349,0.266,0.666,0.466,0.899,0.666c0.233,0.2,0.582,1.215,0.633,1.681
					c0.049,0.465,0.233,2.197,0.25,2.713C-17.595,41.286-17.545,43.416-17.612,43.866z M-18.694,36.792c0,0-2.03,0.583-3.412,1.215
					c-1.381,0.632-1.631,1.398-1.631,1.398s0.871,0.333,1.088,0.383c0.216,0.05,0.593,0.011,1.12-0.111
					c0.527-0.122,0.865-0.216,1.093-0.26c0.228-0.045,0.333-0.061,0.527,0.006c0.194,0.066,0.222,0.144,0.461,0.044
					c0.239-0.1,1.021-0.455,1.021-1.015c0-0.56,0.022-0.627-0.066-0.96C-18.582,37.158-18.694,36.792-18.694,36.792z
					 M-42.705,37.491c-0.089,0.333-0.067,0.399-0.067,0.96c0,0.561,0.782,0.915,1.021,1.015c0.238,0.1,0.266,0.023,0.461-0.044
					c0.194-0.066,0.3-0.05,0.527-0.006c0.227,0.044,0.566,0.139,1.093,0.261c0.527,0.122,0.905,0.161,1.121,0.111
					c0.216-0.049,1.087-0.383,1.087-0.383s-0.249-0.766-1.631-1.398c-1.381-0.633-3.412-1.215-3.412-1.215
					S-42.616,37.158-42.705,37.491z M-22.522,42.251c0-1.85-3.746-2.496-6.986-2.61c-0.01,0-0.021-0.001-0.032-0.001
					c-0.065-0.002-0.13-0.004-0.195-0.006c-0.069-0.002-0.139-0.004-0.208-0.005c-0.009-0.001-0.018-0.001-0.027-0.001
					c-0.197-0.005-0.392-0.007-0.585-0.007c-0.008,0-0.016,0-0.025,0c-0.008,0-0.016,0-0.024,0c-0.192,0-0.388,0.002-0.584,0.007
					c-0.009,0-0.018,0-0.027,0.001c-0.069,0.002-0.139,0.003-0.208,0.005c-0.065,0.002-0.129,0.004-0.194,0.006
					c-0.011,0-0.021,0.001-0.031,0.001c-3.24,0.114-6.986,0.76-6.986,2.61c0,2.053,2.914,2.13,7.998,2.131c0.012,0,0.023,0,0.035,0
					c0.008,0,0.016,0,0.025,0c0.008,0,0.016,0,0.024,0c0.012,0,0.023,0,0.035,0C-25.436,44.381-22.522,44.304-22.522,42.251z
					 M-31.161,40.421c0,0,0.049,0.199,0.216,0.482c0.167,0.283,0.391,0.45,0.391,0.45s0.291-0.249,0.475-0.516
					c0.183-0.266,0.269-0.416,0.269-0.416l4.659-0.117c0,0-2.846-0.494-5.427-0.494c-2.58,0-5.376,0.494-5.376,0.494L-31.161,40.421
					z M-43.128,42.035c0,0-0.042,0.574,0.042,1.049c0.083,0.475,0.333,0.832,0.475,1.015c0.141,0.183,0.866,0.508,1.115,0.533
					c0.249,0.025,0.549-0.083,0.84-0.025c0.291,0.059,1.615,0.458,2.022,0.591c0.408,0.133,0.175-0.49,0.05-0.816
					c-0.125-0.324-0.274-0.633-0.483-0.741c-0.208-0.108-1.048-0.491-1.798-0.707c-0.749-0.216-2.264-0.932-2.264-0.932
					 M-18.207,42.002c0,0-1.515,0.716-2.264,0.932c-0.749,0.217-1.59,0.599-1.797,0.707c-0.209,0.108-0.358,0.416-0.483,0.741
					c-0.125,0.325-0.357,0.949,0.05,0.816c0.408-0.134,1.731-0.533,2.022-0.591c0.292-0.058,0.591,0.05,0.841,0.026
					c0.25-0.026,0.974-0.35,1.115-0.533c0.142-0.183,0.391-0.541,0.475-1.015c0.083-0.475,0.041-1.049,0.041-1.049 M-23.671,44.648
					c0,0-5.049,0.291-6.928,0.299c-1.879-0.008-6.928-0.299-6.928-0.299s-0.083,0.716,0.283,0.799
					c0.237,0.054,2.319,0.184,4.188,0.27l-0.001,0.015c0,0,0.797,0.066,2.379,0.066c0.025,0,0.053,0,0.08,0c0.026,0,0.054,0,0.079,0
					c1.573,0,2.306-0.076,2.313-0.077c1.886-0.086,4.014-0.219,4.253-0.273C-23.587,45.364-23.671,44.648-23.671,44.648z
					 M-23.221,32.653c-0.378-0.866-0.954-1.709-1.132-1.931c-0.178-0.222-0.178-0.245-0.954-0.356
					c-0.48-0.068-2.155-0.103-3.527-0.13v-0.048c0,0-0.954-0.044-1.642,0c-0.028,0.001-0.063,0.003-0.101,0.005
					c-0.038-0.002-0.073-0.004-0.101-0.005c-0.688-0.044-1.642,0-1.642,0v0.048c-1.372,0.027-3.046,0.061-3.527,0.13
					c-0.777,0.111-0.777,0.133-0.954,0.356c-0.178,0.222-0.755,1.065-1.132,1.931c-0.378,0.865-0.066,0.821,0.516,0.888
					c0.575,0.066,5.519,0.066,6.814,0.066c0.016,0,0.035,0,0.052,0c1.294,0,6.239,0,6.814-0.066
					C-23.155,33.474-22.844,33.518-23.221,32.653z"/>
			</g>
		</g>
	</g>
</g>
<g id="title" transform="translate(265.565673828125, 347.6608123779297) scale(1.417)">
	<g>
		<g id="yui_3_17_2_1_1452394883881_508_18_">
			<g id="yui_3_17_2_1_1452394883881_509_27_" enable-background="new    ">
				<path fill="#FFFFFF" d="M-74.002-37.885l0.396,4.839h-0.396c-0.4-1.206-0.916-2.114-1.549-2.725
					c-0.912-0.882-2.084-1.323-3.517-1.323c-1.952,0-3.437,0.773-4.455,2.318c-0.852,1.304-1.278,2.857-1.278,4.658
					c0,1.462,0.283,2.796,0.848,4.002c0.565,1.206,1.306,2.09,2.222,2.651c0.916,0.562,1.856,0.843,2.821,0.843
					c0.565,0,1.112-0.072,1.64-0.215c0.528-0.143,1.037-0.354,1.527-0.633v-4.432c0-0.769-0.059-1.272-0.175-1.51
					s-0.298-0.418-0.543-0.543c-0.245-0.124-0.676-0.186-1.295-0.186v-0.43h5.936v0.43h-0.283c-0.588,0-0.991,0.196-1.21,0.588
					c-0.151,0.279-0.226,0.829-0.226,1.651v4.692c-0.867,0.467-1.723,0.81-2.566,1.029c-0.844,0.218-1.783,0.328-2.815,0.328
					c-2.962,0-5.213-0.95-6.75-2.849c-1.153-1.425-1.73-3.068-1.73-4.93c0-1.349,0.324-2.642,0.972-3.878
					c0.769-1.47,1.824-2.601,3.166-3.392c1.123-0.656,2.45-0.983,3.98-0.983c0.558,0,1.064,0.045,1.521,0.135
					c0.456,0.091,1.102,0.29,1.939,0.599c0.422,0.159,0.705,0.237,0.848,0.237c0.143,0,0.266-0.066,0.367-0.198
					c0.102-0.132,0.164-0.39,0.187-0.774H-74.002z"/>
				<path fill="#FFFFFF" d="M-67.738-32.865v2.329c0.867-1.553,1.756-2.329,2.668-2.329c0.415,0,0.758,0.126,1.029,0.379
					c0.272,0.253,0.407,0.545,0.407,0.876c0,0.294-0.098,0.543-0.294,0.746c-0.196,0.204-0.43,0.305-0.701,0.305
					c-0.264,0-0.56-0.13-0.888-0.39c-0.328-0.26-0.571-0.39-0.729-0.39c-0.136,0-0.283,0.075-0.441,0.226
					c-0.339,0.309-0.69,0.818-1.051,1.527v4.963c0,0.573,0.071,1.006,0.215,1.3c0.098,0.203,0.272,0.373,0.52,0.509
					c0.249,0.136,0.607,0.204,1.074,0.204v0.407h-5.303v-0.407c0.528,0,0.919-0.083,1.176-0.249c0.188-0.121,0.32-0.313,0.396-0.577
					c0.038-0.128,0.057-0.493,0.057-1.096v-4.014c0-1.206-0.025-1.924-0.074-2.154c-0.049-0.23-0.14-0.398-0.271-0.503
					c-0.132-0.106-0.296-0.159-0.492-0.159c-0.234,0-0.498,0.057-0.792,0.17l-0.113-0.407l3.132-1.266H-67.738z"/>
				<path fill="#FFFFFF" d="M-61.316-28.659c-0.008,1.538,0.366,2.744,1.119,3.618c0.754,0.875,1.64,1.311,2.657,1.311
					c0.678,0,1.268-0.186,1.769-0.56c0.501-0.373,0.922-1.012,1.261-1.916l0.35,0.226c-0.158,1.033-0.618,1.973-1.379,2.821
					c-0.762,0.848-1.715,1.272-2.86,1.272c-1.244,0-2.309-0.484-3.194-1.453c-0.886-0.968-1.328-2.27-1.328-3.906
					c0-1.771,0.454-3.153,1.363-4.144c0.908-0.991,2.048-1.487,3.42-1.487c1.161,0,2.114,0.383,2.861,1.148
					c0.746,0.765,1.119,1.788,1.119,3.07H-61.316z M-61.316-29.315h4.794c-0.038-0.663-0.117-1.131-0.237-1.402
					c-0.188-0.422-0.469-0.754-0.842-0.995s-0.763-0.362-1.17-0.362c-0.626,0-1.185,0.243-1.679,0.729
					C-60.944-30.858-61.233-30.181-61.316-29.315z"/>
				<path fill="#FFFFFF" d="M-51.038-28.659c-0.008,1.538,0.366,2.744,1.119,3.618c0.754,0.875,1.64,1.311,2.657,1.311
					c0.678,0,1.268-0.186,1.769-0.56c0.501-0.373,0.922-1.012,1.261-1.916l0.35,0.226c-0.158,1.033-0.618,1.973-1.379,2.821
					c-0.762,0.848-1.715,1.272-2.86,1.272c-1.244,0-2.309-0.484-3.194-1.453c-0.886-0.968-1.328-2.27-1.328-3.906
					c0-1.771,0.454-3.153,1.363-4.144c0.908-0.991,2.048-1.487,3.42-1.487c1.161,0,2.114,0.383,2.861,1.148
					c0.746,0.765,1.119,1.788,1.119,3.07H-51.038z M-51.038-29.315h4.794c-0.038-0.663-0.117-1.131-0.237-1.402
					c-0.188-0.422-0.469-0.754-0.842-0.995c-0.373-0.241-0.763-0.362-1.17-0.362c-0.626,0-1.185,0.243-1.679,0.729
					C-50.667-30.858-50.955-30.181-51.038-29.315z"/>
				<path fill="#FFFFFF" d="M-39.482-30.671c1.213-1.462,2.37-2.194,3.471-2.194c0.565,0,1.052,0.141,1.459,0.424
					c0.407,0.283,0.731,0.748,0.972,1.396c0.166,0.452,0.249,1.146,0.249,2.08v4.421c0,0.656,0.052,1.101,0.158,1.334
					c0.083,0.189,0.217,0.335,0.401,0.441c0.185,0.106,0.526,0.159,1.023,0.159v0.407h-5.122v-0.407h0.215
					c0.482,0,0.82-0.074,1.012-0.221c0.192-0.147,0.326-0.364,0.401-0.65c0.03-0.113,0.045-0.467,0.045-1.063v-4.24
					c0-0.942-0.123-1.626-0.368-2.052c-0.245-0.426-0.658-0.639-1.238-0.639c-0.897,0-1.79,0.49-2.68,1.47v5.461
					c0,0.701,0.041,1.134,0.124,1.3c0.105,0.219,0.251,0.379,0.435,0.481c0.185,0.102,0.56,0.153,1.125,0.153v0.407h-5.122v-0.407
					h0.226c0.528,0,0.884-0.134,1.069-0.401c0.185-0.267,0.277-0.778,0.277-1.532v-3.844c0-1.244-0.028-2.001-0.085-2.273
					c-0.057-0.272-0.143-0.456-0.26-0.554c-0.117-0.098-0.273-0.147-0.469-0.147c-0.211,0-0.463,0.057-0.757,0.17l-0.17-0.407
					l3.121-1.266h0.486V-30.671z"/>
				<path fill="#FFFFFF" d="M-12.584-26.443l0.373,0.079l-1.312,4.161h-11.872v-0.418h0.577c0.648,0,1.112-0.211,1.391-0.633
					c0.158-0.241,0.237-0.799,0.237-1.673v-9.893c0-0.957-0.106-1.557-0.317-1.798c-0.294-0.332-0.731-0.498-1.311-0.498h-0.577
					v-0.418h6.942v0.418c-0.814-0.008-1.385,0.068-1.713,0.226c-0.328,0.158-0.552,0.358-0.673,0.599
					c-0.121,0.241-0.181,0.818-0.181,1.73v9.633c0,0.626,0.06,1.055,0.181,1.289c0.09,0.158,0.23,0.275,0.418,0.35
					c0.188,0.075,0.776,0.113,1.764,0.113h1.12c1.176,0,2.001-0.086,2.476-0.26c0.475-0.173,0.908-0.48,1.3-0.921
					C-13.368-24.797-12.976-25.493-12.584-26.443z"/>
				<path fill="#FFFFFF" d="M-1.91-32.56v6.275c0,1.198,0.028,1.932,0.085,2.199c0.057,0.268,0.147,0.454,0.272,0.56
					c0.124,0.106,0.269,0.158,0.435,0.158c0.234,0,0.498-0.064,0.792-0.192l0.158,0.396l-3.098,1.278h-0.509v-2.194
					c-0.889,0.965-1.568,1.572-2.035,1.82c-0.468,0.249-0.961,0.373-1.481,0.373c-0.581,0-1.084-0.168-1.51-0.503
					c-0.426-0.335-0.722-0.767-0.888-1.295s-0.248-1.274-0.248-2.239v-4.624c0-0.49-0.053-0.829-0.159-1.018
					c-0.105-0.188-0.262-0.334-0.469-0.436c-0.207-0.102-0.582-0.149-1.125-0.141v-0.418h3.629v6.931
					c0,0.965,0.168,1.598,0.503,1.899c0.336,0.302,0.741,0.452,1.216,0.452c0.324,0,0.691-0.102,1.102-0.305
					c0.411-0.204,0.899-0.592,1.464-1.165v-5.868c0-0.588-0.107-0.986-0.322-1.193c-0.215-0.207-0.662-0.318-1.34-0.334v-0.418
					H-1.91z"/>
				<path fill="#FFFFFF" d="M0.17-32.56h4.873v0.418c-0.309,0-0.526,0.053-0.65,0.159c-0.124,0.105-0.186,0.245-0.186,0.418
					c0,0.181,0.132,0.46,0.396,0.837c0.083,0.121,0.207,0.309,0.373,0.565l0.735,1.176l0.848-1.176
					c0.543-0.746,0.814-1.217,0.814-1.413c0-0.159-0.064-0.292-0.192-0.401s-0.335-0.164-0.622-0.164v-0.418h3.505v0.418
					c-0.369,0.023-0.69,0.124-0.961,0.305c-0.37,0.256-0.875,0.814-1.515,1.673l-1.413,1.888l2.578,3.708
					c0.633,0.912,1.085,1.461,1.357,1.645c0.271,0.185,0.622,0.288,1.051,0.311v0.407H6.275v-0.407c0.339,0,0.603-0.075,0.792-0.226
					c0.143-0.106,0.215-0.245,0.215-0.419c0-0.173-0.242-0.61-0.724-1.311l-1.515-2.216l-1.662,2.216
					c-0.513,0.686-0.769,1.093-0.769,1.221c0,0.181,0.085,0.345,0.255,0.492c0.17,0.147,0.424,0.228,0.763,0.243v0.407h-3.38v-0.407
					c0.271-0.038,0.509-0.132,0.712-0.283c0.286-0.218,0.769-0.776,1.447-1.673l2.171-2.883l-1.968-2.849
					c-0.558-0.814-0.989-1.325-1.295-1.532c-0.305-0.207-0.688-0.311-1.147-0.311V-32.56z"/>
			</g>
		</g>
	</g>
</g>
</svg>
