<?xml version="1.0" encoding="utf-8"?>
<!-- Generator: Adobe Illustrator 16.0.0, SVG Export Plug-In . SVG Version: 6.00 Build 0)  -->
<!DOCTYPE svg PUBLIC "-//W3C//DTD SVG 1.1//EN" "http://www.w3.org/Graphics/SVG/1.1/DTD/svg11.dtd">
<svg version="1.1" xmlns="http://www.w3.org/2000/svg" xmlns:xlink="http://www.w3.org/1999/xlink" x="0px" y="0px"
	 width="841.89px" height="595.275px" viewBox="0 0 841.89 595.275" enable-background="new 0 0 841.89 595.275"
	 xml:space="preserve">
<g id="Layer_1" display="none">
	
		<image display="inline" overflow="visible" width="558" height="318" xlink:href="../../../GreenLuxReal/img/logos/logo3.png"  transform="matrix(0.5968 0 0 0.5968 242.9448 131.1836)">
	</image>
</g>
<g id="Layer_2" display="none">
	
		<image display="inline" overflow="visible" width="1920" height="1080" xlink:href="../../../GreenLuxReal/img/tesla2.jpg"  transform="matrix(0.4228 0 0 0.4403 9 114.7764)">
	</image>
</g>
<g id="Layer_4" display="none">
	<text transform="matrix(0.8734 0 0 1 281.1846 285.251)" display="inline" font-family="'CalisMTBol'" font-size="209.8041">GL</text>
</g>
<g id="Layer_3">
	<rect display="none" stroke="#FFFFFF" width="841.89" height="595.275"/>
	<path fill="#096002" stroke="#096002" stroke-miterlimit="10" d="M138.488,300.479l125.125-10.4
		c70.528-54.453,113.028-65.78,208.133-69.422C566.851,217.018,715,261.085,715,261.085
		c-134.629-57.235-188.646-63.247-287.522-59.454c-98.88,3.79-186.458,73.65-186.458,73.65L138.488,300.479z"/>
	<path fill="#D1B320" stroke="#D1B320" stroke-miterlimit="10" d="M211.104,266.876l20.909-5.112c0,0,9.716-8.894,30.088-20.023
		c0,0-10.069-88.669,33.627-122.238c0,0,41.342-27.12,83.297,1.556c0,0,16.715,11.04,21.49,33.788l15.145,0.444l-1.229-57.794
		c0,0-78.385-26.449-131.8-3.558C229.215,116.836,198.822,183.224,211.104,266.876z"/>
	<path fill="#096002" stroke="#096002" stroke-miterlimit="10" d="M457.001,345.884l18.827-6.668c0,0,7.981-0.669,7.981-9.56
		c0-8.892,0-93.692,0-93.692s9.928-2.101,46.251,1.444v98.249l60.378-0.445c0,0,12.482,4.448,24.557-17.782
		c12.076-22.228,11.26-25.339,11.26-25.339l14.12,0.442l-14.324,66.463H455.976L457.001,345.884z"/>
	<path fill="#096002" stroke="#096002" stroke-miterlimit="10" d="M222.152,307.489l45.23-2.809c0,0,4.63-5.117,6.882-6.672
		c0,0,18.904,41.568,57.383,41.348c38.475-0.223,38.475-9.78,39.087-9.78c0.615,0,0-81.575,0-81.575s22.31-7.34,45.232-9.448
		v109.029c0,0-51.779,14.446-79.205,17.336c-27.425,2.892-89.847,5.62-115.426-57.429H222.152z"/>
	<path fill="#D1B320" stroke="#D1B320" stroke-miterlimit="10" d="M482.786,186.853c0,0,24.868-0.11,46.255,3.113V134.84
		c0,0-1.092-19.338,6.343-21.562l25.583-6.224V92.604c0,0-39.907,4.891-106.627,0v14.006l15.35,5.778c0,0,11.053,2.816,12.28,24.006
		L482.786,186.853z"/>
	
		<text transform="matrix(0.9086 0 0 1 128.9434 478.5586)" fill="#FDFFFD" stroke="#FDFFFD" font-family="'CalisMTBol'" font-size="112.5898">GREENLUX</text>
</g>
</svg>
