<?xml version="1.0" encoding="utf-8"?>
<!-- Generator: Adobe Illustrator 16.0.0, SVG Export Plug-In . SVG Version: 6.00 Build 0)  -->
<!DOCTYPE svg PUBLIC "-//W3C//DTD SVG 1.1//EN" "http://www.w3.org/Graphics/SVG/1.1/DTD/svg11.dtd">
<svg version="1.1" id="Layer_1" xmlns="http://www.w3.org/2000/svg" xmlns:xlink="http://www.w3.org/1999/xlink" x="0px" y="0px"
	 width="792px" height="612px" viewBox="0 0 792 612" enable-background="new 0 0 792 612" xml:space="preserve">
<path fill="#1C6131" stroke="#1C6131" stroke-miterlimit="10" d="M99.488,376.438l132.833-11.046
	c74.873-57.808,119.992-69.834,220.957-73.695c100.968-3.865,258.24,42.919,258.24,42.919
	c-142.922-60.759-200.267-67.143-305.235-63.118C301.31,275.52,208.334,349.69,208.334,349.69L99.488,376.438z"/>
<path fill="#D1B42B" stroke="#D1B42B" stroke-miterlimit="10" d="M176.577,340.757l22.198-5.417c0,0,10.315-9.445,31.939-21.262
	c0,0-10.688-94.135,35.701-129.769c0,0,43.891-28.792,88.429,1.651c0,0,17.745,11.723,22.814,35.871l16.077,0.47l-1.304-61.352
	c0,0-83.215-28.084-139.918-3.78C195.806,181.473,163.54,251.957,176.577,340.757z"/>
<path fill="#1C6131" stroke="#1C6131" stroke-miterlimit="10" d="M437.626,424.64l19.986-7.082c0,0,8.473-0.708,8.473-10.144
	c0-9.445,0-99.47,0-99.47s10.542-2.227,49.103,1.531v104.306l64.099-0.47c0,0,13.251,4.721,26.067-18.882
	c12.82-23.597,11.955-26.899,11.955-26.899l14.988,0.474l-15.205,70.551H436.538L437.626,424.64z"/>
<path fill="#1C6131" stroke="#1C6131" stroke-miterlimit="10" d="M188.306,383.881l48.019-2.986c0,0,4.915-5.432,7.305-7.077
	c0,0,20.071,44.13,60.92,43.892c40.845-0.236,40.845-10.385,41.494-10.385c0.654,0,0-86.599,0-86.599s23.687-7.794,48.02-10.03
	v115.748c0,0-54.969,15.333-84.084,18.402c-29.114,3.065-95.382,5.961-122.536-60.965H188.306z"/>
<path fill="#D1B42B" stroke="#D1B42B" stroke-miterlimit="10" d="M464.999,255.813c0,0,26.399-0.118,49.106,3.298v-58.515
	c0,0-1.162-20.533,6.73-22.895l27.163-6.608v-15.338c0,0-42.369,5.194-113.199,0v14.864l16.295,6.139
	c0,0,11.735,2.988,13.037,25.485L464.999,255.813z"/>
</svg>
