<?xml version="1.0" encoding="utf-8"?>
<!-- Generator: Adobe Illustrator 16.0.0, SVG Export Plug-In . SVG Version: 6.00 Build 0)  -->
<!DOCTYPE svg PUBLIC "-//W3C//DTD SVG 1.1//EN" "http://www.w3.org/Graphics/SVG/1.1/DTD/svg11.dtd">
<svg version="1.1" id="Layer_1" xmlns="http://www.w3.org/2000/svg" xmlns:xlink="http://www.w3.org/1999/xlink" x="0px" y="0px"
	 width="792px" height="612px" viewBox="0 0 792 612" enable-background="new 0 0 792 612" xml:space="preserve">
<path fill="#1C6131" stroke="#1C6131" stroke-miterlimit="10" d="M13.488,343.933l34.758-2.891
	c19.592-15.126,31.398-18.273,57.817-19.284c26.42-1.012,67.573,11.23,67.573,11.23c-37.398-15.9-52.403-17.568-79.87-16.516
	c-27.468,1.054-51.796,20.459-51.796,20.459L13.488,343.933z"/>
<path fill="#D1B42B" stroke="#D1B42B" stroke-miterlimit="10" d="M33.659,334.597l5.81-1.419c0,0,2.698-2.472,8.357-5.563
	c0,0-2.798-24.633,9.341-33.958c0,0,11.484-7.533,23.139,0.434c0,0,4.644,3.064,5.97,9.386l4.206,0.123l-0.341-16.055
	c0,0-21.773-7.347-36.611-0.987C38.69,292.917,30.248,311.359,33.659,334.597z"/>
<path fill="#1C6131" stroke="#1C6131" stroke-miterlimit="10" d="M101.968,356.543l5.229-1.85c0,0,2.217-0.188,2.217-2.656
	c0-2.472,0-26.027,0-26.027s2.758-0.583,12.848,0.401v27.292l16.772-0.124c0,0,3.467,1.237,6.822-4.938
	c3.354-6.175,3.128-7.039,3.128-7.039l3.922,0.121l-3.979,18.465h-47.245L101.968,356.543z"/>
<path fill="#1C6131" stroke="#1C6131" stroke-miterlimit="10" d="M36.729,345.879l12.565-0.78c0,0,1.285-1.421,1.911-1.854
	c0,0,5.252,11.549,15.94,11.487c10.688-0.063,10.688-2.716,10.858-2.716c0.171,0,0-22.664,0-22.664s6.197-2.038,12.565-2.622v30.287
	c0,0-14.384,4.014-22.003,4.815c-7.619,0.802-24.958,1.561-32.064-15.953H36.729z"/>
<path fill="#D1B42B" stroke="#D1B42B" stroke-miterlimit="10" d="M109.13,312.367c0,0,6.908-0.03,12.849,0.865v-15.313
	c0,0-0.304-5.371,1.762-5.989l7.106-1.73v-4.014c0,0-11.085,1.359-29.619,0v3.892l4.263,1.604c0,0,3.069,0.782,3.411,6.67
	L109.13,312.367z"/>
<text transform="matrix(0.9086 0 0 1 181.3242 362.5488)" fill="#FDFEFD" stroke="#FEFEFD" font-family="'CalisMTBol'" font-size="110.6512">GREENLUX</text>
</svg>
